# xmcd
#
# Track frame offsets:
# 150
# 14379
# 36898
# 57474
# 68790
# 85949
# 99899
# 120702
# 136315
# 152189
#
# Disc length: 2281 seconds
#
#
# Revision: 0
# Processed by: cddbd v1.5.2PL0 Copyright (c) Steve Scherf et al.
# Submitted via: FreeRIP 2.60 
#
DISCID=8008e70a
DTITLE=The Glovers - Out of the Darkness
DYEAR=1900
DGENRE=Gospel
TTITLE0=Glory Bound
TTITLE1=Hurtin People
TTITLE2=Still Holdin On
TTITLE3=Behind the Rock
TTITLE4=Thats Grace
TTITLE5=Step On Out of the Boat
TTITLE6=Hes So Real
TTITLE7=Make Me A Promise
TTITLE8=Good God
TTITLE9=Thats How God Forgives
EXTD=
EXTT0=
EXTT1=
EXTT2=
EXTT3=
EXTT4=
EXTT5=
EXTT6=
EXTT7=
EXTT8=
EXTT9=
PLAYORDER=
